<svg xmlns="http://www.w3.org/2000/svg" viewBox="0 0 181.354 114.631"><g data-name="Layer 2"><g data-name="ART"><path d="M176.721 1.506l-172.178.14a3.049 3.049 0 00-3.036 3.041l.086 105.402a3.049 3.049 0 003.04 3.035l172.18-.14a3.05 3.05 0 003.035-3.04l-.086-105.402a3.049 3.049 0 00-3.04-3.036zM48.19 37.633l.01 13.007.005 5.121.002 2.766a2.026 2.026 0 01-2.024 2.027l-26.288.022a2.03 2.03 0 01-2.027-2.024l-.01-13.008-.005-5.12-.002-2.767a2.027 2.027 0 012.024-2.027l26.288-.021a2.03 2.03 0 012.027 2.024zM174.566 89.27a12.303 12.303 0 01-24.098 3.512 12.31 12.31 0 11-.009-6.985 12.305 12.305 0 0124.107 3.473z" fill="#cedd3e"/><path d="M176.812 112.984a3.05 3.05 0 003.036-3.04l-.086-105.402a3.049 3.049 0 00-3.04-3.036l-34.831.029c-21.174 21.96-21.226 45.41-35.025 55.26-15.675 11.19-57.963 24.98-71.487 56.304zm-50.45-23.675a12.303 12.303 0 0124.097-3.512 12.31 12.31 0 11.01 6.985 12.305 12.305 0 01-24.107-3.473z" fill="#b5c933"/><path d="M1.592 108.754l.001 1.335a3.049 3.049 0 003.04 3.035l172.18-.14a3.05 3.05 0 003.035-3.04l-.001-1.335z" fill="#b5c933"/><path d="M162.252 77.988a11.292 11.292 0 107.987 3.3 11.254 11.254 0 00-7.987-3.3z" fill="#ed9b42"/><path d="M149.957 89.29z" fill="#fdbe2a"/><path d="M18.879 56.291l.002 2.26a1.014 1.014 0 001.013 1.012l7.413-.006-.002-3.273zM18.876 51.167h8.426v4.108h-8.426zM28.318 56.28h9.437v3.273h-9.437zM38.77 59.548l7.412-.006a1.014 1.014 0 001.012-1.014l-.002-2.26-8.425.007zM38.764 51.151h8.426v4.108h-8.426zM28.303 36.632h9.437v3.273h-9.437zM27.289 36.637l-7.413.006a1.014 1.014 0 00-1.012 1.013l.001 2.26 8.426-.006zM18.872 46.046h8.426v4.108h-8.426zM18.868 40.926h8.426v4.108h-8.426zM46.164 36.622l-7.413.006.002 3.272 8.426-.006-.002-2.26a1.014 1.014 0 00-1.013-1.012zM38.76 46.03h8.426v4.108H38.76z" fill="#e8a91b"/><path d="M28.316 55.271l9.437-.008-.008-9.736a.506.506 0 01.506-.506h.005l8.927-.007-.003-4.108-18.875.015z" fill="#e8a91b"/><path d="M24.154 71.61l-.024.142h-.012a2.74 2.74 0 01-.474 1.059v.011a2.228 2.228 0 01-.952.764 3.68 3.68 0 01-1.38.273 2.792 2.792 0 01-1.572-.44 1.863 1.863 0 01-.823-1.437l-.035-.238.214-.06a.857.857 0 01.345-.084c.416 0 .547.369.62.572a.9.9 0 00.119.236 1.198 1.198 0 001.023.428 2.478 2.478 0 001.44-.465 1.685 1.685 0 00.369-1.238 2.007 2.007 0 00-.609-1.332 1.537 1.537 0 00-1.036-.297 7.268 7.268 0 00-.857.072h-.072c-.06.012-.13.012-.202.024a6.29 6.29 0 01-.833.06h-.142l-.096-.119a1.567 1.567 0 01-.215-1.012v-.105c0-.906.034-1.822.13-2.988v-.204l.225-.058h.012a13.603 13.603 0 011.488-.121h.011c.072 0 .156-.012.227-.012a7.26 7.26 0 001.202-.107h.095a1.027 1.027 0 01.201-.012c.762-.002.822.486.822.629v.084l-.047.082a.624.624 0 01-.56.263 1.334 1.334 0 01-.226-.023h-.094a.133.133 0 00-.06-.012c-.143.012-.298.024-.452.047a2.998 2.998 0 00-.31.026 10.055 10.055 0 01-1.226.084h-.238a17.765 17.765 0 00-.056 2.474 8.782 8.782 0 011.105-.096 2.973 2.973 0 011.894.534 2.79 2.79 0 01.834 1.084 2.868 2.868 0 01.227 1.511zM32.041 68.293a7.321 7.321 0 01-.224 1.715c-.416 1.834-.998 2.988-1.77 3.512h-.012a2.876 2.876 0 01-1.536.464 3.005 3.005 0 01-1.821-.652 3.875 3.875 0 01-1.156-1.475v-.011a6.599 6.599 0 01-.466-2.762 6.375 6.375 0 01.653-2.678v-.011a3.386 3.386 0 012.2-1.825h.024c.011-.011.035-.011.07-.011a.11.11 0 01.06.011 2.786 2.786 0 01.286-.023 3.324 3.324 0 01.869.105 3.684 3.684 0 011.441.809 4.35 4.35 0 011.06 1.32 3.435 3.435 0 01.322 1.512zm-4.114 4.717a1.324 1.324 0 00.226.012 2.538 2.538 0 001.416-.514 5.101 5.101 0 001.153-2.666l.012-.024a8.207 8.207 0 00.248-1.822 3.119 3.119 0 00-.965-1.76l-.012-.023a1.87 1.87 0 00-1.488-.643 3.025 3.025 0 00-.44.036 2.533 2.533 0 00-1.404 1.37 6.092 6.092 0 00-.175 4.452 3.164 3.164 0 00.632.974 1.763 1.763 0 00.797.608zM39.61 68.287a7.32 7.32 0 01-.223 1.715c-.416 1.832-.998 2.988-1.77 3.512h-.013a2.876 2.876 0 01-1.536.465 3.003 3.003 0 01-1.82-.653 3.884 3.884 0 01-1.156-1.474v-.012a6.604 6.604 0 01-.467-2.762 6.376 6.376 0 01.653-2.678v-.011a3.386 3.386 0 012.2-1.825h.024c.012-.011.035-.011.071-.011a.11.11 0 01.06.011 2.786 2.786 0 01.285-.023 3.324 3.324 0 01.87.105 3.66 3.66 0 011.44.81 4.35 4.35 0 011.06 1.32 3.436 3.436 0 01.322 1.511zm-4.114 4.717a1.33 1.33 0 00.227.012 2.538 2.538 0 001.416-.514 5.11 5.11 0 001.153-2.666l.012-.023a8.207 8.207 0 00.248-1.823 3.131 3.131 0 00-.966-1.761l-.012-.024a1.875 1.875 0 00-1.488-.64 3.025 3.025 0 00-.44.035 2.533 2.533 0 00-1.404 1.37 6.092 6.092 0 00-.175 4.452 3.164 3.164 0 00.632.974 1.763 1.763 0 00.797.608zM47.179 68.281a7.32 7.32 0 01-.224 1.715c-.416 1.832-.998 2.986-1.77 3.512h-.012a2.876 2.876 0 01-1.536.465 3.003 3.003 0 01-1.822-.653 3.884 3.884 0 01-1.155-1.474v-.012a6.604 6.604 0 01-.467-2.762 6.368 6.368 0 01.654-2.677v-.012a3.38 3.38 0 012.199-1.824h.024c.012-.012.035-.012.072-.012a.11.11 0 01.06.012 2.789 2.789 0 01.284-.024 3.324 3.324 0 01.87.106 3.66 3.66 0 011.44.808 4.326 4.326 0 011.06 1.32 3.43 3.43 0 01.323 1.512zm-4.115 4.717a1.33 1.33 0 00.227.012 2.553 2.553 0 001.416-.514 5.11 5.11 0 001.153-2.666l.012-.023a8.222 8.222 0 00.248-1.823 3.131 3.131 0 00-.966-1.761l-.011-.024a1.875 1.875 0 00-1.489-.64 3.025 3.025 0 00-.44.035 2.533 2.533 0 00-1.404 1.37 6.092 6.092 0 00-.174 4.452 3.164 3.164 0 00.632.975 1.763 1.763 0 00.796.607zM62.866 70.018l-.012.107a58.86 58.86 0 00-.094 1.535c-.012.25 0 .526.012.762v.012a5.206 5.206 0 01-.034 1.06l-.024.154-.154.061a.799.799 0 01-.358.094.504.504 0 01-.285-.082h-.012l-.107-.084-.025-.108v-.011a22.446 22.446 0 01.01-3.893l.01-.082a32.548 32.548 0 00.093-3.44c-.034.036-.07.06-.106.094-.012.012-.036.026-.06.05l-.32.26h-.013l-.012.013h-.012c-.011.011-.035.025-.048.037a1.97 1.97 0 01-.796.297.432.432 0 01-.464-.452v-.011c0-.262.248-.453.832-.823l.166-.095a2.82 2.82 0 00.25-.19.62.62 0 01.06-.037 1.55 1.55 0 01.88-.404.804.804 0 01.464.154v.012l.12.082v.119a21.785 21.785 0 01.04 4.809zM71.056 73.19a.513.513 0 01-.107.333l-.011.012a.926.926 0 01-.68.19l-.534-.022c-.298-.014-.62-.025-.953-.023q-.446.017-.82.07l-.049.012c-.273.025-.535.06-.773.06a1.709 1.709 0 01-.679-.117h-.012l-.07-.059-.049-.072a.715.715 0 01.166-.834.471.471 0 00.083-.119l.072-.107c.142-.239.285-.489.416-.739.07-.119.13-.238.19-.355.143-.264.296-.549.51-.906a8.814 8.814 0 001.082-3.082 2.09 2.09 0 00-.24-1.43.463.463 0 00-.31-.178h-.083a1.8 1.8 0 00-.63.157.085.085 0 01-.072.035c-.084.058-.178.13-.274.203l-.023.023a1.194 1.194 0 01-.738.344.916.916 0 01-.452-.14h-.012l-.12-.096v-.143a.81.81 0 01.345-.62 4.094 4.094 0 01.583-.333h.012a2.77 2.77 0 011.32-.383 1.642 1.642 0 011.084.37 2.612 2.612 0 01.668 2.331 9.678 9.678 0 01-1.615 4.154l-.048.073v.011c-.212.346-.391.631-.534.893.464-.035.964-.035 1.452-.037.488 0 1.38-.012 1.38-.012a.487.487 0 01.203.047.434.434 0 01.131.12.456.456 0 01.19.368zM77.506 72.719a2.415 2.415 0 01-1.523 1.025 4.446 4.446 0 01-.917.096 2.768 2.768 0 01-1.273-.26 4.763 4.763 0 01-1.024-.762v-.011a1.91 1.91 0 01-.537-1.536v-.154l.143-.07a.77.77 0 01.357-.11.483.483 0 01.44.274l.013.012v.013a2.512 2.512 0 01.106.332l.036.18a1.238 1.238 0 00.572.713h.012l.071.058a.434.434 0 01.037.038c.119.07.238.166.32.2a1.98 1.98 0 00.584.083 2.525 2.525 0 001.5-.442 1.88 1.88 0 00.44-1.32 2.457 2.457 0 00-.396-1.523 1.767 1.767 0 00-1.332-.452 1.18 1.18 0 00-.31.026h-.036a1 1 0 00-.13.047h-.012l-.012.011a3.386 3.386 0 01-.881.178.532.532 0 01-.583-.39c-.084-.393.308-.692.617-.918l.025-.024a1.318 1.318 0 00.213-.18 18.233 18.233 0 001.939-2.095l-.238-.012c-.62-.023-1.18-.045-1.714-.045-.239 0-.44 0-.643.012l-.19.023a2.16 2.16 0 01-.406.037.65.65 0 01-.725-.57v-.168l.107-.082a2.051 2.051 0 011.26-.252 3.544 3.544 0 00.536-.025 4.901 4.901 0 01.643-.035c.333 0 .69.023 1.035.046a2.15 2.15 0 01.274.012c.274.024.524.035.69.035h.012a2.602 2.602 0 01.476.059.677.677 0 01.524.369l.013.035v.012c.071.357-.274.703-.535.965a1.394 1.394 0 00-.12.13l-.01.012a30.919 30.919 0 01-1.595 1.752 2.716 2.716 0 011.06.225 2.534 2.534 0 01.857.643 3.227 3.227 0 01.692 1.974v.012a3.194 3.194 0 01-.462 1.797zM84.418 70.656l-.071.094c-.166.38-.701.38-.94.38a3.249 3.249 0 01-.356-.009h-.322c-.012.25 0 .547.012.856v.048l.001.178a8.648 8.648 0 01-.047 1.488v.166l-.155.061a.556.556 0 01-.273.07.992.992 0 01-.298-.047l-.131-.035-.06-.142a4.356 4.356 0 01-.143-1.57l-.001-.192c0-.262 0-.523-.024-.773a4.91 4.91 0 00-.56.046l-.059.014c-.06.012-.119.012-.167.024-.285.023-.571.06-.845.06a2.707 2.707 0 01-.904-.143l-.155-.046-.035-.155a2.322 2.322 0 01.296-1.357v-.012c.046-.096.094-.18.13-.273v-.014c.415-1.13.748-2.082 1.034-2.975l.048-.144a6.287 6.287 0 01.628-1.5l.06-.084.13-.035h.024a.093.093 0 00.048-.012h.071a.573.573 0 01.416.178.04.04 0 01.025.013l.023.024.012.012c0 .011.013.011.013.011l.155.131-.06.19a174.524 174.524 0 01-1.52 4.394c-.059.166-.13.332-.19.512l-.083.25h.036a7.324 7.324 0 001.13-.121l.298-.047a3.59 3.59 0 00-.012-.62 2.26 2.26 0 01.046-.892l.047-.18.167-.023a.983.983 0 01.166-.012.84.84 0 01.526.19l.119.06v.166c.035.452.058.809.06 1.274a2.356 2.356 0 00.286-.024h.011c.167-.011.333-.025.5-.025a1.579 1.579 0 01.429.047.577.577 0 01.428.418zM101.295 71.547l-.024.142h-.012a2.74 2.74 0 01-.475 1.06v.01a2.213 2.213 0 01-.951.764 3.68 3.68 0 01-1.38.274 2.792 2.792 0 01-1.572-.44 1.863 1.863 0 01-.823-1.437l-.036-.238.214-.06a.82.82 0 01.346-.083c.416-.002.547.367.62.57a.9.9 0 00.118.237 1.198 1.198 0 001.024.427 2.478 2.478 0 001.44-.464 1.685 1.685 0 00.368-1.239 2.007 2.007 0 00-.608-1.332 1.537 1.537 0 00-1.036-.297 7.269 7.269 0 00-.858.073h-.07c-.06.011-.132.011-.203.023a6.29 6.29 0 01-.833.06H96.4l-.095-.118a1.567 1.567 0 01-.215-1.012v-.106c0-.906.034-1.822.129-2.988v-.203l.225-.059h.013a13.603 13.603 0 011.487-.12h.012c.071 0 .155-.012.227-.012a7.26 7.26 0 001.202-.108h.094a1.027 1.027 0 01.202-.012c.761-.002.822.487.822.63v.083l-.047.082a.624.624 0 01-.56.264 1.335 1.335 0 01-.226-.023h-.095a.133.133 0 00-.06-.012c-.142.012-.297.023-.452.047a2.999 2.999 0 00-.31.025 10.055 10.055 0 01-1.226.084h-.237a17.764 17.764 0 00-.057 2.475 8.782 8.782 0 011.106-.096 2.973 2.973 0 011.893.533 2.79 2.79 0 01.834 1.084 2.868 2.868 0 01.228 1.512zM107.769 71.48a2.765 2.765 0 01-.357 1.061 2.864 2.864 0 01-.666.75h-.012a2.33 2.33 0 01-.962.5 2.73 2.73 0 01-.525.06 2.887 2.887 0 01-1.834-.712 2.541 2.541 0 01-.893-1.332 4.873 4.873 0 01-.192-1.69v-.011a8.103 8.103 0 01.866-3.215 10.182 10.182 0 01.773-1.25 2.036 2.036 0 01.951-.81h.012a1.363 1.363 0 01.286-.036.687.687 0 01.667.523l.096.239-.239.119a4.43 4.43 0 00-1.996 2.869 3.884 3.884 0 011.189-.215 2.327 2.327 0 01.881.154 4.023 4.023 0 011.12.772h.011a3.241 3.241 0 01.763.988 2.478 2.478 0 01.06 1.236zm-1.096-.986a2.574 2.574 0 00-1.942-1.152 1.612 1.612 0 00-.75.201l-.011.014h-.012c-.023.023-.12.093-.285.238-.143.13-.214.215-.237.238a3.483 3.483 0 000 .928v.023a1.93 1.93 0 001.513 1.82 2.147 2.147 0 00.262.024c.44 0 .702-.238 1.095-.644.011-.012.011-.024.023-.024a.093.093 0 01.048-.047l.095-.273a2.318 2.318 0 00.2-1.346zM113.727 66.168l-.012.023-.131.297c-.084.203-.144.418-.227.633a2.923 2.923 0 01-.141.428c-.12.357-.262.822-.44 1.262h.12a.744.744 0 01.57.2h.013a.642.642 0 01.13.43v.024l-.023.084-.048.07-.012.012a1.33 1.33 0 01-.904.252h-.012c-.083 0-.154.012-.237.012-.38.93-.737 1.892-.998 2.726l-.071.309-.012.023a1.426 1.426 0 01-.309.752l-.06.096h-.107a.694.694 0 01-.142.012.716.716 0 01-.321-.073l-.227-.07-.023-.18v-.011a2.978 2.978 0 01.33-1.452c.024-.084.06-.156.084-.238a2.332 2.332 0 00.095-.25v-.023l.012-.026a7.59 7.59 0 00.26-.808 9.16 9.16 0 01.215-.668c-.059.002-.107.002-.166.002h-.036a3.406 3.406 0 01-.345.023.859.859 0 01-.643-.215l-.012-.011a.661.661 0 01-.108-.57l.06-.227h.225l.489-.024h.142a6.276 6.276 0 00.821-.072 40.61 40.61 0 00.618-1.703c.13-.404.286-.834.439-1.262-.286 0-.571-.035-.87-.058l-.07-.012a1.143 1.143 0 01-.203-.026c-.273-.023-.57-.056-.869-.056a2.794 2.794 0 00-.38.047h-.036c-.048.011-.095.011-.143.023-.131.012-.274.037-.405.037a.98.98 0 01-.511-.119.675.675 0 01-.345-.488l-.024-.154.107-.108a.899.899 0 01.678-.226h.118a.157.157 0 00.072.011h.166a.899.899 0 00.227-.035h.023c.036 0 .083-.014.131-.014a1.974 1.974 0 01.262-.023h.024a5.636 5.636 0 01.654.082c.156.025.311.049.465.06h.013a2.042 2.042 0 00.285.012 1.309 1.309 0 00.214-.011l.227-.002a1.105 1.105 0 00.19-.012h.227a4.215 4.215 0 01.808.07h.012l.096.037.047.07c.286.335.095.762-.046 1.108zM121.491 72.459a2.369 2.369 0 01-1.058 1.096 4.482 4.482 0 01-1.666.261 3.853 3.853 0 01-1.703-.295 2.501 2.501 0 01-1.085-1.535 2.68 2.68 0 01.012-1.191 2.428 2.428 0 01.464-.928 4.964 4.964 0 011.308-1.096 2.512 2.512 0 01-1.048-1.224 1.79 1.79 0 01.118-1.477l-.001-.011a3.63 3.63 0 01.75-.918 2.135 2.135 0 011.117-.56h.025a2.935 2.935 0 01.32-.013 2.285 2.285 0 011.43.452 1.87 1.87 0 01.739 1.212 2.474 2.474 0 01-.428 1.62 4.88 4.88 0 01-.713.822 4.967 4.967 0 01.964.678 2.508 2.508 0 01.812 1.546v.012a2.743 2.743 0 01-.357 1.549zm-1.036-.547a2.064 2.064 0 00.297-1.002c-.084-.902-.965-1.224-1.822-1.521l-.346.226-.047.024a4.433 4.433 0 00-1.403 1.215 1.458 1.458 0 00.24 1.654 2.4 2.4 0 001.094.166 5.176 5.176 0 00.643-.035l.274-.024c.119-.013.225-.025.298-.037v-.047h.142a1.546 1.546 0 00.63-.619zm-1.338-6.332h-.012a1.423 1.423 0 00-.963.56l-.012.012a1.725 1.725 0 00-.487 1.038c0 .355.464.558.905.76h.012l.297.154a2.955 2.955 0 001.308-1.512.865.865 0 00-.251-.738 2.502 2.502 0 00-.273-.108 1.06 1.06 0 01-.18-.058l-.296-.096a.072.072 0 01-.048-.012zM137.944 64.97v.155c-.058 1.855-.175 3.748-.294 5.678-.07.998-.117 1.834-.164 2.654v.143l-.119.095h-.012a.544.544 0 01-.296.084.79.79 0 01-.298-.06l-.239-.07-.023-.18a10.991 10.991 0 01-.002-1.989l.012-.058c.035-.465.082-.988.07-1.547a3.36 3.36 0 01-.726.06 3.22 3.22 0 01-1.13-.177 1.412 1.412 0 01-.834-.725 2.937 2.937 0 01-.18-1.465 3.592 3.592 0 01.51-1.464 3.011 3.011 0 01.82-.952h.013a2.244 2.244 0 011.165-.466 1.793 1.793 0 01.25-.012h.143a.491.491 0 00.131.012h.143a.45.45 0 00.13.011h.108a.434.434 0 01.237-.072.607.607 0 01.418.215l.036.035zm-2.341 3.966a3.738 3.738 0 001.083-.18c.058-.559.07-1.19.08-1.797.012-.441.012-.893.047-1.334a2.181 2.181 0 00-2.057 2.36 1.487 1.487 0 00.108.726l.012.012.012.011.012.012a.988.988 0 00.703.19zM143.065 69.953l-.011.108c-.036.5-.072 1.023-.095 1.535a8.2 8.2 0 00.013.761v.012a5.181 5.181 0 01-.035 1.059l-.024.156-.154.059a.799.799 0 01-.358.095.504.504 0 01-.285-.082h-.012l-.107-.084-.024-.107v-.012a22.446 22.446 0 01.008-3.892l.012-.082a32.549 32.549 0 00.092-3.44c-.034.035-.07.059-.106.094-.012.012-.036.025-.06.049l-.32.261h-.013l-.012.012h-.011c-.012.012-.036.024-.048.035a1.944 1.944 0 01-.797.3.433.433 0 01-.464-.454v-.012c0-.261.248-.45.832-.82l.166-.096a2.868 2.868 0 00.25-.191s.036-.024.06-.035a1.553 1.553 0 01.88-.407.818.818 0 01.464.155v.011l.12.084v.12a21.785 21.785 0 01.04 4.808zM152.88 68.195a7.32 7.32 0 01-.223 1.715c-.416 1.832-.998 2.988-1.77 3.512h-.012a2.876 2.876 0 01-1.536.465 3.005 3.005 0 01-1.821-.653 3.875 3.875 0 01-1.156-1.474v-.012a6.599 6.599 0 01-.466-2.762 6.376 6.376 0 01.653-2.677v-.012a3.386 3.386 0 012.199-1.824h.024c.012-.012.036-.012.072-.012a.11.11 0 01.06.012 2.786 2.786 0 01.284-.024 3.324 3.324 0 01.87.106 3.66 3.66 0 011.441.808 4.35 4.35 0 011.06 1.32 3.436 3.436 0 01.322 1.512zm-4.113 4.717a1.323 1.323 0 00.226.012 2.538 2.538 0 001.416-.514 5.101 5.101 0 001.153-2.666l.012-.023a8.208 8.208 0 00.248-1.823 3.131 3.131 0 00-.966-1.761l-.011-.024a1.875 1.875 0 00-1.489-.64 3.026 3.026 0 00-.44.035 2.533 2.533 0 00-1.403 1.37 6.092 6.092 0 00-.175 4.452 3.164 3.164 0 00.632.975 1.763 1.763 0 00.797.607zM157.75 69.941l-.012.108c-.036.5-.071 1.023-.094 1.535a8.2 8.2 0 00.012.762v.011a5.181 5.181 0 01-.034 1.059l-.024.156-.155.059a.802.802 0 01-.357.096.504.504 0 01-.285-.082h-.012l-.107-.084-.024-.108v-.012a22.347 22.347 0 01.008-3.892l.012-.082a32.549 32.549 0 00.092-3.44c-.035.036-.07.059-.106.094-.012.012-.036.026-.06.049l-.32.262h-.013l-.012.011h-.012c-.012.012-.035.024-.048.036a1.944 1.944 0 01-.797.298.435.435 0 01-.464-.453v-.011c0-.262.249-.452.833-.823l.166-.094a2.871 2.871 0 00.25-.19s.036-.024.06-.036a1.553 1.553 0 01.879-.406.818.818 0 01.465.154v.012l.119.084v.119a21.785 21.785 0 01.04 4.808zM22.953 94.617a2.606 2.606 0 01-.78.887 2.691 2.691 0 01-1.12.455h-.02a4.543 4.543 0 01-.57.033h-.423a8.179 8.179 0 00.054.824 7.592 7.592 0 010 1.625l-.03.19-.17.021c-.01 0-.01.012-.021.012a.644.644 0 01-.137.01.523.523 0 01-.412-.168 1.67 1.67 0 01-.222-1.194v-.199c0-.38-.033-.824-.065-1.226l-.031-.559c-.023-.697-.001-1.394.018-2.059v-.033c.02-.853.032-1.656-.022-2.396l-.032-.295.306.021h.01a.764.764 0 00.149.01c.136 0 .274-.021.41-.033l.022-.01a3.786 3.786 0 01.592-.053h.147a3.166 3.166 0 012.43 1.772v.012a2.656 2.656 0 01-.083 2.353zm-2.935-.947c-.01.443-.02.906-.01 1.435h.127a2.425 2.425 0 001.731-.656 1.534 1.534 0 00.432-1.1 2.077 2.077 0 00-1.955-1.95 1.719 1.719 0 00-.349.042c.054.813.044 1.51.024 2.229zM28.478 97.906a.407.407 0 01-.042.381.844.844 0 01-.623.275 2.344 2.344 0 01-.423.044c-.148 0-.317-.012-.465-.022a5.048 5.048 0 00-.411-.02l-.053.01a9.726 9.726 0 01-1.193.096 3.138 3.138 0 01-.898-.115l-.138-.032-.052-.148v-.01a6.295 6.295 0 01-.097-2.123c0-1.658.008-3.77.09-5.437v-.254l3.634-.002a.815.815 0 01.169-.012.565.565 0 01.443.168.453.453 0 01.063.402l-.032.127-.127.053h-.01a7.25 7.25 0 01-2.301.244c-.116.01-.232.01-.338.01-.179 0-.359.012-.538.012 0 .424-.011.834-.03 1.277 0 .139-.011.276-.011.424-.011.295-.022.602-.02.918.506.041 1.034.053 1.498.053a12.278 12.278 0 011.7.07s.19.022.212.053a.459.459 0 01.01.201.539.539 0 01-.42.539 1.712 1.712 0 01-.518.064 1.544 1.544 0 01-.233-.011h-.137c-.211 0-.454-.01-.697-.02-.147 0-.296 0-.443-.01h-.01c-.328-.021-.655-.03-.963-.04.001.232-.01.453-.02.695v.297c-.01.527-.02 1.066.003 1.69h.295c.221-.003.443-.013.655-.024.105 0 .21-.01.306-.01a14.17 14.17 0 011.002-.043 6.713 6.713 0 01.95.062.537.537 0 01.15.043.624.624 0 01.063.125zM34.81 98.367l-.02.074-.074.053h-.01a.542.542 0 01-.307.084c-.443 0-.665-.453-.78-.707l-.022-.053v-.021a1.625 1.625 0 01-.085-.147c-.01-.021-.02-.033-.032-.052a8.268 8.268 0 00-.391-.729c-.158-.265-.296-.539-.424-.803-.02-.03-.042-.074-.063-.105v-.01a23.975 23.975 0 00-.454-.886c-.222-.391-.455-.782-.687-1.163-.033-.052-.065-.105-.096-.146-.19-.297-.37-.613-.55-.92-.105-.168-.212-.348-.317-.518.012.54.021 1.352.033 2.145.012.908.023 1.764.024 2.154a.456.456 0 00.01.115 3.218 3.218 0 01-.01.444v.201a1.67 1.67 0 010 .232v.01a1.35 1.35 0 00-.01.213 1.78 1.78 0 01-.042.475.475.475 0 01-.476.37h-.042c-.137-.01-.316-.107-.38-.423a2.853 2.853 0 01-.021-.518.456.456 0 00.01-.115c.021-1.119.02-2.049.02-3.137 0-.285 0-.57-.002-.875 0-.445-.01-.877-.022-1.341-.011-.487-.023-.983-.023-1.522v-.178l.17-.054c.01-.01.02-.01.031-.02a.355.355 0 01.148-.033.88.88 0 01.76.434c.043.052.074.115.117.168a15.177 15.177 0 011.047 1.593l.116.19c.476.824 1.015 1.763 1.47 2.681l.433.844c-.021-.676-.075-1.33-.118-1.972-.074-1.141-.16-2.313-.161-3.592v-.116l.085-.084.01-.011a.039.039 0 00.021-.01.376.376 0 01.254-.076 1.154 1.154 0 01.39.074l.138.053.021.158.01.213c.064 1.203.119 2.353.162 3.473l.032.92c.022.8.044 1.562.118 2.279v.021a1.05 1.05 0 00.022.158v.012a.798.798 0 01-.032.496zM41.546 98.361l-.02.075-.075.052h-.01a.542.542 0 01-.306.084c-.444 0-.666-.453-.781-.707l-.022-.052v-.022c-.031-.041-.053-.094-.085-.146-.01-.022-.02-.034-.031-.053a8.017 8.017 0 00-.392-.729c-.158-.263-.296-.539-.424-.802-.02-.032-.042-.075-.062-.106v-.01a22.595 22.595 0 00-.455-.886c-.222-.391-.454-.782-.687-1.163-.033-.052-.064-.105-.096-.146-.19-.297-.37-.613-.55-.92-.105-.168-.211-.348-.317-.516.012.54.023 1.352.034 2.143.011.908.022 1.764.023 2.154a.47.47 0 00.01.117 3.228 3.228 0 01-.01.444v.201a1.64 1.64 0 01.001.23v.012a1.313 1.313 0 00-.01.211 1.773 1.773 0 01-.043.475.473.473 0 01-.475.37h-.042c-.137-.01-.317-.107-.38-.423a2.833 2.833 0 01-.022-.516.478.478 0 00.011-.117c.02-1.119.02-2.049.019-3.137l-.001-.874c0-.446-.011-.878-.023-1.342-.01-.485-.022-.98-.022-1.52v-.18l.169-.054c.01-.01.021-.01.032-.02a.36.36 0 01.147-.033.885.885 0 01.761.434c.042.052.073.117.116.168a15.175 15.175 0 011.047 1.593l.116.192c.476.822 1.015 1.762 1.47 2.68l.434.843c-.022-.676-.076-1.33-.119-1.972-.074-1.141-.16-2.313-.16-3.592v-.115l.084-.084.01-.012a.039.039 0 00.022-.01.365.365 0 01.254-.074 1.108 1.108 0 01.39.074l.137.05.021.16.011.212c.065 1.203.118 2.353.161 3.473l.032.92c.022.8.043 1.562.119 2.279v.021a1.05 1.05 0 00.021.159v.011a.798.798 0 01-.032.496zM47.113 90.49l-.021.201a9.834 9.834 0 01-.737 2.248c-.063.14-.126.276-.19.403-.042.084-.085.168-.127.263l-.179.338a3.114 3.114 0 01-.158.285c-.031.053-.063.096-.084.14v.009a1.608 1.608 0 00-.358 1.11c0 .622.043 1.605.096 2.28v.01a.253.253 0 00.011.084.065.065 0 00.01.043.613.613 0 01-.179.655h-.01a.331.331 0 01-.222.074.46.46 0 01-.2-.041h-.022a.036.036 0 00-.031-.012h-.19l-.053-.2a16.018 16.018 0 01-.193-3.02v-.19a1.115 1.115 0 000-.328v-.01a2.102 2.102 0 00-.348-.623v-.01a.62.62 0 01-.085-.138 1.632 1.632 0 01-.117-.159l-.264-.484c-.138-.201-.233-.39-.307-.518-.126-.242-.265-.464-.391-.675-.053-.094-.106-.19-.159-.274l-.042-.074c-.19-.307-.37-.611-.529-.918l-.02-.053v-.064a.358.358 0 01.221-.338h.01a.513.513 0 01.148-.043h.053l.116-.02.159-.074.127.158a21.754 21.754 0 011.522 2.46l.433.76a11.473 11.473 0 00.822-1.808 11.955 11.955 0 01.644-1.542l.052-.106.138-.031h.031a.396.396 0 01.064-.01.603.603 0 01.327.115l.01.012.064.041zM58.684 90.723l-.054.191h-.01c-.106.36-.22.717-.337 1.066-.39 1.225-.8 2.504-1.085 3.823v.011l-.01.01c-.128.381-.221.76-.305 1.131a9.42 9.42 0 01-.264 1.004c-.095.338-.232.654-.56.654-.252 0-.485-.19-.739-.611a7.588 7.588 0 01-.348-.707 1.131 1.131 0 00-.054-.117.157.157 0 01-.02-.063.196.196 0 01-.022-.031l-.01-.012v-.01a11.53 11.53 0 01-.456-1.236c-.062.139-.126.276-.19.412a6.86 6.86 0 01-.316.635l-.284.506c-.2.36-.411.74-.654 1.121l-.031.043-.053.01a.25.25 0 01-.053.031.399.399 0 01-.169.043.495.495 0 01-.465-.254 1.645 1.645 0 01-.137-.38 33.698 33.698 0 00-.34-1.077c-.454-1.424-.92-2.902-1.291-4.517l-.158-.602c-.022-.084-.042-.19-.064-.275a5.545 5.545 0 01-.17-.782v-.18l.148-.072a.66.66 0 01.306-.074.603.603 0 01.454.22 2.307 2.307 0 01.37 1.089 2.683 2.683 0 00.043.285c.021.094.042.178.063.264a.934.934 0 01.043.136v.022a45.994 45.994 0 001.281 4.529 15.75 15.75 0 00.791-1.533c.064-.127.127-.264.19-.39a1.475 1.475 0 00.084-.212 1.943 1.943 0 01.21-.453.572.572 0 01.476-.275.512.512 0 01.233.052c.243.106.358.463.518 1.024v.043a7.911 7.911 0 00.613 1.709 4.988 4.988 0 00.127-.486v-.01c.042-.127.073-.264.105-.403.347-1.298.674-2.523 1.095-3.77.052-.148.094-.315.137-.485a4.34 4.34 0 01.453-1.182v-.012l.053-.074.073-.02a.348.348 0 01.17-.033.609.609 0 01.4.158l.043.022zM61.611 98.113l-.03.084c-.117.317-.466.328-.698.338h-.01a.313.313 0 00-.096.01h-.074l-.306.086c-.032.012-.063.012-.095.021a1.663 1.663 0 01-.463.075.764.764 0 01-.55-.211l-.096-.094.022-.139a.407.407 0 01.316-.338.629.629 0 01.243-.043.142.142 0 01.064-.01h.063c.01-.412 0-.876-.022-1.425v-.01c0-.074-.01-.16-.012-.232a23.023 23.023 0 01.03-2.557 20.548 20.548 0 00.03-2.133h-.01a2.34 2.34 0 01-.296.022 1.191 1.191 0 01-.348-.043.497.497 0 01-.338-.41l-.022-.169.148-.095a3.37 3.37 0 011.235-.235c.106-.01.222-.021.349-.021a.922.922 0 01.454.096.491.491 0 01.285.412l.032.084-.063.084a.5.5 0 01-.475.222h-.042c.02.803 0 1.594-.02 2.428v.402c-.02 1.098-.04 2.227.014 3.39h.022a2.029 2.029 0 01.242-.022.455.455 0 01.497.359zM67.133 97.58a2.344 2.344 0 01-1.13.877 4.059 4.059 0 01-1.54.297 2.9 2.9 0 01-1.51-.379 2.338 2.338 0 01-.847-1.414.908.908 0 01.168-.844l.01-.011.074-.053h.085c.021 0 .042-.01.074-.01a.529.529 0 01.508.336v.012a1.214 1.214 0 01.052.431v.106l.011.021v.022a1.49 1.49 0 00.339.623 2.125 2.125 0 001.13.21h.042a1.86 1.86 0 001.752-1.046 1.576 1.576 0 00-.328-1.711 2.934 2.934 0 00-1.416-.537h-.011a.517.517 0 01-.106-.022 2.838 2.838 0 01-1.351-.537 2.273 2.273 0 01-.636-1.668 2.14 2.14 0 01.76-1.478 2.348 2.348 0 012.724-.266 1.96 1.96 0 01.422.316.612.612 0 01.192.665l-.085.21-.2-.052a2.019 2.019 0 01-.773-.317h-.01l-.01-.01a1.081 1.081 0 00-.613-.22 1.54 1.54 0 00-.338.04 1.246 1.246 0 00-.696.52 1.706 1.706 0 00-.349.887v.01a.826.826 0 00.551.896v.012a1.868 1.868 0 00.644.115h.01a2.404 2.404 0 01.444.065 3.083 3.083 0 012.135 1.666 2.373 2.373 0 01-.178 2.238zM72.865 97.871a.401.401 0 01-.043.379.836.836 0 01-.622.277 2.552 2.552 0 01-.423.041c-.147 0-.316-.01-.465-.021a6.105 6.105 0 00-.41-.02l-.053.01a9.743 9.743 0 01-1.194.098 3.208 3.208 0 01-.897-.115l-.138-.034-.053-.146v-.012a6.287 6.287 0 01-.096-2.121c-.001-1.658.008-3.77.09-5.44v-.251l3.633-.004a.98.98 0 01.17-.01.558.558 0 01.443.168.45.45 0 01.063.4l-.032.127-.127.053h-.01a7.139 7.139 0 01-2.302.244 3.34 3.34 0 01-.338.012c-.178 0-.358.012-.538.012 0 .421-.01.834-.03 1.277 0 .137-.01.275-.01.422-.011.297-.022.601-.021.92.507.04 1.035.05 1.5.05a12.562 12.562 0 011.7.073s.19.021.211.052a.458.458 0 01.01.202.54.54 0 01-.421.539 1.762 1.762 0 01-.518.062 1.852 1.852 0 01-.232-.01h-.137c-.212 0-.454-.01-.697-.02-.148 0-.296 0-.443-.01h-.011c-.327-.022-.654-.03-.961-.042 0 .233-.01.455-.022.697v.295c-.008.53-.02 1.067.002 1.69h.296c.222 0 .444-.012.656-.022.105 0 .21-.01.305-.01.307-.02.645-.044 1.003-.044a7.042 7.042 0 01.951.062.532.532 0 01.148.043.753.753 0 01.063.127z" fill="#3e4147"/><path d="M37.511 108.725q-1.158 2.129-2.132 4.374l141.433-.115a3.05 3.05 0 003.036-3.04l-.002-1.335z" fill="#94a727"/><path d="M3.919 114.63a3.837 3.837 0 01-3.832-3.826L0 3.974A3.841 3.841 0 013.828.142L177.434 0h.004a3.84 3.84 0 013.83 3.827l.086 106.828a3.836 3.836 0 01-3.828 3.834l-173.604.142zM177.439 2h-.003L3.83 2.14A1.84 1.84 0 002 3.974l.087 106.829a1.834 1.834 0 001.832 1.829l173.605-.142a1.833 1.833 0 001.83-1.832L179.268 3.83A1.839 1.839 0 00177.438 2z" fill="#3e4147"/><path d="M18.942 61.07a1.568 1.568 0 01-1.567-1.565l-.019-22.8a1.568 1.568 0 011.566-1.567l28.193-.024a1.569 1.569 0 011.568 1.567l.018 22.798a1.568 1.568 0 01-1.564 1.568zm.414-23.932l.019 21.932 27.326-.023-.018-21.933z" fill="#3e4147"/><path d="M27.813 61.063a1 1 0 01-1-.999l-.019-23.933a1 1 0 01.999-1.001h.001a1 1 0 011 .999l.02 23.933a1 1 0 01-1 1.001zM38.258 44.527a.999.999 0 011 1v14.528a1 1 0 01-1 1h-.001a.999.999 0 01-1-1V45.528a1 1 0 011-1zM38.246 35.122a.999.999 0 011 1v4.285a1 1 0 01-1 1h-.001a.999.999 0 01-1-.999v-4.286a1 1 0 011-1z" fill="#3e4147"/><path d="M18.36 41.423a1 1 0 01-.002-2l29.327-.024a1 1 0 01.002 2l-29.327.024zM38.252 46.527a1 1 0 01-.001-2l9.438-.006a1 1 0 01.002 2l-9.438.006zM18.363 46.544a1 1 0 010-2l9.438-.008a1 1 0 01.002 2l-9.439.008zM38.256 51.648a1 1 0 01-.001-2l9.438-.007h.001a1 1 0 01.001 2l-9.438.007zM18.368 51.665a1 1 0 010-2l9.437-.008a1 1 0 01.002 2l-9.438.008zM18.372 56.785a1 1 0 010-2l29.325-.023h.001a1 1 0 01.001 2l-29.326.023z" fill="#3e4147"/><circle cx="138.666" cy="89.299" r="11.798" fill="#85c3e9"/><path d="M138.664 102.097a12.798 12.798 0 01-.009-25.596h.01a12.813 12.813 0 0112.799 12.787 12.813 12.813 0 01-12.788 12.809zm.001-23.596h-.008a10.798 10.798 0 00.007 21.596h.01a10.796 10.796 0 0010.79-10.807 10.81 10.81 0 00-10.799-10.789z" fill="#3e4147"/><circle cx="162.261" cy="89.28" r="11.798" fill="#4495d7"/><path d="M162.263 102.078a12.798 12.798 0 01-.012-25.596h.012A12.798 12.798 0 01175.06 89.27a12.814 12.814 0 01-12.788 12.808zm0-23.596h-.01a10.798 10.798 0 00.01 21.596h.008a10.811 10.811 0 0010.789-10.807 10.81 10.81 0 00-10.797-10.789z" fill="#3e4147"/></g></g></svg>
